<?xml version="1.0" standalone="no"?>
<!DOCTYPE svg PUBLIC "-//W3C//DTD SVG 20010904//EN"
 "http://www.w3.org/TR/2001/REC-SVG-20010904/DTD/svg10.dtd">
<svg version="1.0" xmlns="http://www.w3.org/2000/svg"
 width="440.000000pt" height="612.000000pt" viewBox="0 0 440.000000 612.000000"
 preserveAspectRatio="xMidYMid meet">

<g transform="translate(0.000000,612.000000) scale(0.100000,-0.100000)"
fill="#000000" stroke="none">
<path d="M2982 6108 c-7 -7 -12 -20 -12 -29 0 -28 -11 -49 -25 -49 -8 0 -16
-8 -19 -18 -6 -18 -32 -19 -458 -25 -248 -4 -590 -7 -760 -7 l-308 0 0 28 c0
60 -56 112 -87 81 -8 -8 -13 -8 -17 0 -10 16 -52 13 -67 -5 -7 -9 -21 -13 -35
-10 -13 4 -31 -2 -47 -14 -14 -11 -31 -20 -39 -20 -19 0 -38 -20 -38 -40 0
-15 -27 -18 -242 -23 -133 -4 -373 -7 -535 -7 l-293 0 0 -45 0 -45 553 -2 552
-3 12 -60 c29 -143 27 -196 -17 -425 -55 -288 -55 -352 0 -510 40 -115 40
-115 40 -270 0 -178 17 -301 52 -380 14 -30 54 -102 88 -160 l64 -105 1 -165
c1 -189 11 -230 90 -383 44 -86 45 -89 45 -185 0 -72 7 -120 25 -186 13 -48
36 -164 51 -257 27 -168 27 -169 10 -281 -9 -62 -36 -184 -60 -270 -88 -308
-127 -553 -127 -798 0 -163 10 -232 57 -398 33 -118 95 -242 141 -282 34 -30
40 -32 94 -28 42 3 71 13 107 35 l50 31 7 -77 c3 -42 10 -124 14 -183 7 -95
11 -112 37 -149 16 -23 45 -53 66 -66 36 -24 37 -24 73 -7 65 30 124 134 125
216 0 26 -9 84 -20 130 -23 98 -25 159 -5 248 26 117 23 127 -50 197 -43 41
-65 70 -65 85 0 38 68 360 78 370 5 5 35 -42 77 -124 124 -242 216 -401 310
-536 83 -120 98 -137 151 -166 65 -36 129 -109 119 -135 -13 -33 -18 -477 -6
-514 29 -86 74 -106 157 -68 52 24 88 93 105 200 13 89 7 158 -28 306 -25 105
-25 113 -13 206 16 119 9 211 -19 266 -11 23 -48 72 -81 110 -39 43 -58 73
-54 83 20 51 45 295 42 400 l-4 115 -122 340 c-66 187 -135 384 -152 438 l-32
97 17 162 c20 196 41 269 140 478 40 85 84 192 99 237 24 78 56 312 56 413 0
32 9 53 38 93 151 204 178 278 221 588 11 80 36 209 55 285 72 285 77 365 46
695 -12 133 -7 171 42 292 l32 77 535 0 c295 0 546 3 559 6 19 5 22 13 22 51
l0 44 -569 -7 -569 -7 -7 41 c-7 45 -27 67 -51 58 -10 -4 -23 3 -34 16 -16 20
-21 21 -39 10 -16 -9 -25 -10 -40 0 -15 9 -23 9 -36 -2 -12 -10 -19 -10 -27
-2 -15 15 -31 15 -46 0z m5 -206 c15 -5 46 -16 67 -23 21 -8 47 -26 58 -40 16
-21 17 -29 7 -51 -13 -31 -14 -30 -141 29 -86 40 -94 54 -62 115 l16 32 14
-26 c7 -14 26 -30 41 -36z m-1590 7 c21 -40 16 -78 -15 -107 -80 -76 -102 -92
-127 -92 -51 0 -94 36 -95 80 0 36 32 52 120 59 l75 6 -3 29 c-6 59 21 74 45
25z m1477 -41 c4 -22 26 -53 65 -91 94 -92 96 -101 72 -270 -12 -86 -30 -169
-46 -212 -22 -57 -29 -99 -37 -220 l-11 -150 -44 -38 c-68 -61 -90 -109 -142
-313 l-47 -188 -55 -16 c-65 -20 -84 -29 -172 -88 -62 -40 -71 -43 -94 -33
-26 12 -26 13 -20 102 5 85 8 92 41 129 56 62 70 162 26 193 -12 9 -19 33 -23
92 -16 192 -128 281 -301 241 -191 -45 -243 -122 -248 -366 -2 -108 0 -133 20
-188 38 -108 26 -202 -27 -202 -10 0 -68 37 -129 83 -91 67 -112 87 -116 112
-39 255 -45 271 -136 360 l-61 60 7 115 c3 71 2 140 -6 180 -42 240 -50 305
-50 420 l0 126 50 49 c45 44 50 54 50 92 l0 43 682 3 c376 1 697 3 714 5 29 2
32 -1 38 -30z m293 -303 c7 -27 17 -121 23 -209 12 -194 2 -302 -35 -384 -15
-32 -30 -84 -35 -117 -10 -72 -112 -477 -133 -526 -14 -33 -97 -169 -97 -159
0 3 11 63 25 134 14 71 24 131 22 133 -3 2 -19 -33 -37 -77 -18 -44 -40 -84
-49 -89 -27 -14 -61 6 -78 46 -31 75 5 329 60 428 20 35 77 87 124 114 13 7
17 37 23 172 5 113 13 178 24 209 10 25 24 77 32 115 33 158 80 271 107 262 7
-2 17 -25 24 -52z m-1896 -15 c31 -42 56 -167 68 -338 10 -138 9 -172 -4 -228
-27 -116 -26 -118 75 -219 98 -97 114 -129 141 -282 18 -105 -4 -263 -36 -263
-28 0 -98 130 -121 225 l-12 50 0 -60 c0 -33 3 -104 7 -158 3 -54 3 -107 -1
-118 -28 -75 -163 86 -197 236 -13 56 -30 266 -31 366 0 56 -6 80 -36 144
l-37 76 6 117 c6 130 26 237 64 355 41 124 74 152 114 97z m944 -589 c53 -24
102 -66 122 -105 27 -51 29 -229 5 -348 -24 -116 -53 -173 -107 -209 -54 -37
-99 -49 -180 -49 -65 0 -69 2 -105 38 -48 47 -57 83 -71 258 -12 152 -3 257
28 321 19 41 79 78 158 97 80 19 103 19 150 -3z m440 -723 c-20 -205 -37 -304
-65 -380 l-30 -82 37 35 c55 52 107 89 126 89 40 0 74 -152 63 -278 -17 -181
-83 -277 -178 -256 -28 6 -29 7 -13 30 14 22 14 24 -2 24 -10 0 -35 3 -55 6
-49 8 -50 -7 -6 -96 37 -78 44 -159 15 -203 -24 -37 -77 -37 -132 0 -50 33
-223 171 -230 184 -4 5 -10 9 -15 9 -4 0 12 -39 37 -87 46 -89 46 -89 27 -180
-5 -26 0 -42 25 -79 24 -37 31 -58 31 -97 0 -44 -4 -54 -35 -83 -51 -47 -100
-60 -177 -46 -34 6 -66 16 -72 22 -19 19 -13 170 8 210 24 44 29 47 90 56 l50
6 -51 20 c-28 10 -65 33 -82 50 -26 26 -31 29 -31 13 0 -31 -30 -55 -69 -55
-58 0 -154 28 -174 51 -19 24 -22 82 -7 126 7 21 -7 10 -58 -45 -37 -40 -70
-72 -74 -72 -14 0 -8 94 7 120 22 39 19 53 -10 46 -50 -13 -12 66 51 105 34
21 36 24 18 27 -32 5 -35 36 -8 90 13 26 24 47 24 48 0 1 -23 4 -51 7 -65 8
-120 35 -137 67 -21 40 -9 208 22 302 14 42 30 104 35 137 17 105 43 131 134
131 80 0 112 -16 187 -96 73 -78 105 -135 121 -216 22 -111 -35 -217 -143
-268 l-59 -28 118 0 c105 -1 132 -5 242 -36 73 -21 147 -36 178 -36 48 0 56 3
91 38 20 21 45 53 56 71 l18 33 -52 -36 c-66 -45 -85 -50 -173 -43 -87 8 -172
47 -204 96 -32 48 -31 137 1 207 30 65 62 91 320 264 148 98 218 140 238 140
l29 0 -6 -62z m-776 -1229 c20 -12 51 -38 68 -59 l33 -37 -14 -73 c-8 -40 -21
-79 -29 -87 -23 -24 -84 0 -151 59 -61 54 -86 97 -86 147 0 66 102 94 179 50z
m228 -314 c19 -8 49 -15 65 -15 l29 0 -18 -31 c-33 -57 -89 -75 -200 -63 -74
8 -123 39 -123 80 0 21 5 24 38 25 20 1 48 5 62 9 41 13 108 11 147 -5z m310
-474 c68 -31 153 -155 213 -313 32 -83 61 -260 67 -410 6 -135 0 -168 -28
-168 -14 0 -77 67 -114 123 -19 28 -35 49 -35 46 0 -3 9 -50 21 -105 20 -97
19 -155 -3 -181 -14 -18 -54 -16 -83 3 -53 35 -189 245 -315 487 l-69 135 -6
-47 c-22 -168 -69 -319 -150 -490 -70 -144 -120 -228 -151 -248 -49 -32 -146
-10 -179 41 -48 72 -36 308 31 636 7 34 -41 -78 -96 -222 -25 -65 -49 -118
-54 -118 -11 0 0 288 15 380 6 41 26 98 55 155 50 101 166 265 187 265 20 0
94 -77 124 -128 14 -24 36 -69 49 -100 25 -63 28 -59 38 53 7 83 33 163 61
191 21 20 27 22 54 13 17 -6 53 -35 80 -65 l49 -54 7 29 c9 42 57 81 124 102
41 12 63 10 108 -10z"/>
<path d="M2490 3495 c0 -22 12 -24 41 -9 16 8 29 16 29 17 0 1 -16 2 -35 3
-20 0 -35 -4 -35 -11z"/>
<path d="M1939 3451 c-45 -30 -146 -118 -119 -105 8 4 32 18 53 31 36 23 42
23 132 14 52 -5 100 -13 107 -16 7 -4 -12 18 -44 49 -31 31 -63 56 -70 56 -8
0 -34 -13 -59 -29z"/>
<path d="M1957 2673 c-15 -14 -5 -18 44 -14 35 2 47 6 38 12 -16 10 -73 12
-82 2z"/>
</g>
</svg>
