<?xml version="1.0" standalone="no"?>
<!DOCTYPE svg PUBLIC "-//W3C//DTD SVG 20010904//EN"
 "http://www.w3.org/TR/2001/REC-SVG-20010904/DTD/svg10.dtd">
<svg version="1.0" xmlns="http://www.w3.org/2000/svg"
 width="800.000000pt" height="800.000000pt" viewBox="0 0 800.000000 800.000000"
 preserveAspectRatio="xMidYMid meet">

<g transform="translate(0.000000,800.000000) scale(0.100000,-0.100000)"
fill="#bffa29" stroke="none">
<path d="M3835 7040 c-256 -29 -403 -59 -692 -144 -249 -72 -355 -112 -538
-201 -907 -444 -1524 -1296 -1665 -2300 -89 -636 35 -1298 351 -1869 429 -777
1180 -1329 2047 -1505 411 -84 862 -81 1262 9 447 100 881 309 1242 597 185
148 269 225 361 330 705 807 929 1906 596 2921 -17 51 -33 92 -35 90 -1 -2 10
-45 26 -96 40 -129 86 -334 107 -482 24 -176 24 -595 0 -770 -31 -215 -89
-453 -150 -620 -55 -149 -71 -185 -142 -326 -78 -159 -186 -330 -305 -484 -95
-124 -406 -433 -541 -537 -340 -264 -777 -459 -1184 -530 -152 -26 -176 -27
-480 -27 -345 0 -427 8 -684 69 -702 169 -1321 585 -1734 1167 -280 394 -454
846 -522 1350 -24 184 -22 557 5 748 69 484 246 931 524 1325 109 155 214 270
370 409 465 412 1026 660 1656 732 195 22 536 15 733 -15 479 -74 905 -245
1271 -512 85 -61 60 -31 -32 38 -339 259 -740 437 -1183 527 -119 24 -359 52
-519 60 -41 2 31 2 160 0 171 -2 272 -8 371 -23 528 -78 1007 -284 1419 -611
130 -103 414 -386 502 -500 334 -431 546 -948 609 -1485 17 -142 17 -529 0
-670 -52 -432 -189 -837 -405 -1194 -31 -50 -63 -104 -72 -119 -38 -65 19 16
72 101 218 351 352 724 421 1172 28 188 26 638 -5 835 -65 409 -191 763 -389
1093 -472 786 -1262 1306 -2178 1432 -139 20 -529 28 -650 15z m-2560 -1976
c-76 -192 -146 -544 -167 -837 -31 -437 59 -953 238 -1362 394 -901 1197
-1550 2151 -1739 229 -45 294 -51 597 -51 201 0 274 -3 240 -9 -27 -5 -184 -9
-349 -10 -268 -1 -315 1 -445 22 -478 76 -902 249 -1275 520 -631 457 -1046
1124 -1174 1887 -65 381 -51 785 39 1155 44 178 144 479 157 467 2 -3 -3 -22
-12 -43z"/>
<path d="M2685 5865 c-193 -67 -244 -551 -78 -744 81 -96 165 -95 247 0 36 43
73 126 83 187 4 22 14 37 27 42 18 8 279 44 376 52 34 3 35 2 32 -29 -4 -41
76 -247 129 -332 85 -136 190 -228 304 -265 l50 -16 -3 -212 c-2 -232 2 -255
50 -272 23 -8 45 -1 145 46 385 182 638 114 799 -213 46 -95 60 -109 100 -109
42 0 78 42 69 80 -10 40 -82 177 -124 233 -55 75 -154 163 -219 196 -159 80
-356 80 -559 1 l-72 -27 -6 40 c-4 22 -4 82 0 133 7 91 8 94 33 100 252 55
453 252 539 527 l28 89 50 -6 c28 -3 123 -20 212 -38 l161 -32 7 -35 c16 -87
83 -199 136 -227 100 -51 200 13 254 160 82 227 24 541 -115 618 -56 31 -121
20 -172 -28 -75 -73 -118 -193 -120 -334 -1 -87 1 -85 -63 -70 -22 5 -116 23
-210 40 -535 93 -1116 101 -1680 20 -71 -10 -133 -16 -137 -13 -5 2 -8 33 -8
69 0 142 -60 294 -136 346 -51 34 -80 40 -129 23z m1645 -455 c74 -6 140 -13
147 -15 9 -3 6 -23 -12 -74 -79 -234 -234 -386 -427 -422 -208 -38 -393 107
-489 385 -16 44 -29 93 -29 108 0 27 0 27 83 31 136 7 583 -1 727 -13z"/>
<path d="M3935 5321 c-197 -34 -250 -277 -83 -375 120 -69 270 -29 324 88 28
61 30 107 5 161 -19 42 -78 101 -115 114 -37 14 -90 19 -131 12z"/>
<path d="M6710 5095 c0 -5 5 -17 10 -25 5 -8 10 -10 10 -5 0 6 -5 17 -10 25
-5 8 -10 11 -10 5z"/>
<path d="M3705 4279 c-247 -128 -392 -227 -507 -347 -116 -121 -221 -291 -221
-356 0 -55 80 -89 115 -48 9 9 26 37 38 62 73 144 197 286 337 384 46 31 143
89 217 127 74 38 140 76 147 85 18 22 15 71 -6 94 -23 26 -68 25 -120 -1z"/>
<path d="M2010 2615 l0 -495 75 0 75 0 0 215 0 215 140 0 140 0 0 75 0 75
-140 0 -140 0 0 130 0 130 210 0 210 0 0 53 c0 28 -3 62 -6 75 l-6 22 -279 0
-279 0 0 -495z"/>
<path d="M2800 3103 c-1 -5 -1 -226 -1 -493 l0 -485 76 -3 75 -3 0 496 0 495
-75 0 c-41 0 -75 -3 -75 -7z"/>
<path d="M3136 3073 c-3 -21 -6 -55 -6 -75 l0 -38 140 0 140 0 0 -420 0 -420
75 0 75 0 0 420 0 420 134 0 c75 0 137 4 141 10 3 5 3 39 -1 75 l-7 65 -342 0
-342 0 -7 -37z"/>
<path d="M4020 2615 l0 -495 75 0 75 0 0 495 0 495 -75 0 -75 0 0 -495z"/>
<path d="M4440 2615 l0 -495 75 0 75 0 2 213 3 212 137 3 136 3 4 70 c2 39 1
73 -1 75 -2 2 -67 4 -143 4 l-138 0 0 130 0 130 212 2 212 3 -3 65 c-1 35 -5
68 -7 72 -3 5 -131 8 -285 8 l-279 0 0 -495z"/>
<path d="M5153 3098 c2 -7 79 -132 171 -278 l166 -264 0 -218 0 -218 75 0 75
0 0 218 0 217 166 265 c92 146 169 271 171 278 4 9 -16 12 -79 12 l-83 0 -70
-112 c-38 -62 -95 -153 -126 -201 l-56 -88 -98 158 c-54 87 -109 177 -124 201
l-26 42 -83 0 c-63 0 -83 -3 -79 -12z"/>
<path d="M6520 2330 c-12 -16 -19 -30 -16 -30 2 0 14 14 26 30 12 17 19 30 16
30 -2 0 -14 -13 -26 -30z"/>
<path d="M6479 2273 c-13 -16 -12 -17 4 -4 16 13 21 21 13 21 -2 0 -10 -8 -17
-17z"/>
</g>
</svg>
